<svg xmlns="http://www.w3.org/2000/svg" width="34" height="34" viewBox="0 0 34 34" fill="none">
    <g clip-path="url(#clip0_50325_416)">
      <path fill-rule="evenodd" clip-rule="evenodd" d="M21.08 23.12C22.8835 23.12 24.6131 23.8365 25.8883 25.1117C27.1636 26.387 27.88 28.1166 27.88 29.92V32.64C27.88 33.0007 27.7367 33.3467 27.4817 33.6017C27.2266 33.8568 26.8807 34 26.52 34C26.1593 34 25.8134 33.8568 25.5583 33.6017C25.3033 33.3467 25.16 33.0007 25.16 32.64V29.92C25.16 28.838 24.7301 27.8002 23.965 27.0351C23.1998 26.2699 22.1621 25.84 21.08 25.84H10.2C9.11791 25.84 8.08015 26.2699 7.315 27.0351C6.54985 27.8002 6.11999 28.838 6.11999 29.92V32.64C6.11999 33.0007 5.97671 33.3467 5.72166 33.6017C5.46661 33.8568 5.12069 34 4.75999 34C4.3993 34 4.05338 33.8568 3.79833 33.6017C3.54328 33.3467 3.39999 33.0007 3.39999 32.64V29.92C3.39999 28.1166 4.11642 26.387 5.39167 25.1117C6.66692 23.8365 8.39652 23.12 10.2 23.12H21.08ZM26.52 14.96C26.8807 14.96 27.2266 15.1033 27.4817 15.3584C27.7367 15.6134 27.88 15.9594 27.88 16.32V17.68H29.24C29.6007 17.68 29.9466 17.8233 30.2017 18.0784C30.4567 18.3334 30.6 18.6794 30.6 19.04C30.6 19.4007 30.4567 19.7467 30.2017 20.0017C29.9466 20.2568 29.6007 20.4 29.24 20.4H27.88V21.76C27.88 22.1207 27.7367 22.4667 27.4817 22.7217C27.2266 22.9768 26.8807 23.12 26.52 23.12C26.1593 23.12 25.8134 22.9768 25.5583 22.7217C25.3033 22.4667 25.16 22.1207 25.16 21.76V20.4H23.8C23.4393 20.4 23.0934 20.2568 22.8383 20.0017C22.5833 19.7467 22.44 19.4007 22.44 19.04C22.44 18.6794 22.5833 18.3334 22.8383 18.0784C23.0934 17.8233 23.4393 17.68 23.8 17.68H25.16V16.32C25.16 15.9594 25.3033 15.6134 25.5583 15.3584C25.8134 15.1033 26.1593 14.96 26.52 14.96ZM15.64 6.80005C17.4435 6.80005 19.1731 7.51648 20.4483 8.79172C21.7236 10.067 22.44 11.7966 22.44 13.6C22.44 15.4035 21.7236 17.1331 20.4483 18.4084C19.1731 19.6836 17.4435 20.4 15.64 20.4C13.8365 20.4 12.1069 19.6836 10.8317 18.4084C9.55642 17.1331 8.83999 15.4035 8.83999 13.6C8.83999 11.7966 9.55642 10.067 10.8317 8.79172C12.1069 7.51648 13.8365 6.80005 15.64 6.80005ZM15.64 9.52005C15.1042 9.52005 14.5737 9.62558 14.0786 9.83062C13.5836 10.0357 13.1339 10.3362 12.755 10.7151C12.3761 11.0939 12.0756 11.5437 11.8706 12.0387C11.6655 12.5337 11.56 13.0643 11.56 13.6C11.56 14.1358 11.6655 14.6664 11.8706 15.1614C12.0756 15.6564 12.3761 16.1062 12.755 16.485C13.1339 16.8639 13.5836 17.1644 14.0786 17.3695C14.5737 17.5745 15.1042 17.68 15.64 17.68C16.7221 17.68 17.7598 17.2502 18.525 16.485C19.2901 15.7199 19.72 14.6821 19.72 13.6C19.72 12.518 19.2901 11.4802 18.525 10.7151C17.7598 9.9499 16.7221 9.52005 15.64 9.52005Z" fill="#F3F3F3"/>
    </g>
    <defs>
      <clipPath id="clip0_50325_416">
        <rect width="34" height="34" fill="white" transform="matrix(-1 0 0 1 34 0)"/>
      </clipPath>
    </defs>
  </svg>