<svg xmlns="http://www.w3.org/2000/svg" width="24" height="24" viewBox="0 0 24 24" fill="none">
    <path
        d="M2.25 2.625V4.968C2.25 5.26637 2.13147 5.55252 1.9205 5.76349C1.70952 5.97447 1.42337 6.093 1.125 6.093C0.826631 6.093 0.540483 5.97447 0.329505 5.76349C0.118526 5.55252 0 5.26637 0 4.968L0 2.625C0 1.176 1.176 0 2.625 0H4.968C5.26637 0 5.55252 0.118526 5.76349 0.329505C5.97447 0.540483 6.093 0.826631 6.093 1.125C6.093 1.42337 5.97447 1.70952 5.76349 1.9205C5.55252 2.13147 5.26637 2.25 4.968 2.25H2.625C2.52554 2.25 2.43016 2.28951 2.35984 2.35984C2.28951 2.43016 2.25 2.52554 2.25 2.625ZM9.657 0H14.343C14.6414 0 14.9275 0.118526 15.1385 0.329505C15.3495 0.540483 15.468 0.826631 15.468 1.125C15.468 1.42337 15.3495 1.70952 15.1385 1.9205C14.9275 2.13147 14.6414 2.25 14.343 2.25H9.657C9.35863 2.25 9.07248 2.13147 8.86151 1.9205C8.65053 1.70952 8.532 1.42337 8.532 1.125C8.532 0.826631 8.65053 0.540483 8.86151 0.329505C9.07248 0.118526 9.35863 0 9.657 0ZM19.032 0H21.375C22.8255 0 24 1.176 24 2.625V4.968C24 5.26637 23.8815 5.55252 23.6705 5.76349C23.4595 5.97447 23.1734 6.093 22.875 6.093C22.5766 6.093 22.2905 5.97447 22.0795 5.76349C21.8685 5.55252 21.75 5.26637 21.75 4.968V2.625C21.75 2.52554 21.7105 2.43016 21.6402 2.35984C21.5698 2.28951 21.4745 2.25 21.375 2.25H19.032C18.7336 2.25 18.4475 2.13147 18.2365 1.9205C18.0255 1.70952 17.907 1.42337 17.907 1.125C17.907 0.826631 18.0255 0.540483 18.2365 0.329505C18.4475 0.118526 18.7336 0 19.032 0ZM2.25 9.657V14.343C2.25 14.6414 2.13147 14.9275 1.9205 15.1385C1.70952 15.3495 1.42337 15.468 1.125 15.468C0.826631 15.468 0.540483 15.3495 0.329505 15.1385C0.118526 14.9275 0 14.6414 0 14.343L0 9.657C0 9.35863 0.118526 9.07248 0.329505 8.86151C0.540483 8.65053 0.826631 8.532 1.125 8.532C1.42337 8.532 1.70952 8.65053 1.9205 8.86151C2.13147 9.07248 2.25 9.35863 2.25 9.657ZM24 9.657V14.343C24 14.6414 23.8815 14.9275 23.6705 15.1385C23.4595 15.3495 23.1734 15.468 22.875 15.468C22.5766 15.468 22.2905 15.3495 22.0795 15.1385C21.8685 14.9275 21.75 14.6414 21.75 14.343V9.657C21.75 9.35863 21.8685 9.07248 22.0795 8.86151C22.2905 8.65053 22.5766 8.532 22.875 8.532C23.1734 8.532 23.4595 8.65053 23.6705 8.86151C23.8815 9.07248 24 9.35863 24 9.657ZM2.25 19.032V21.375C2.25 21.582 2.418 21.75 2.625 21.75H4.968C5.26637 21.75 5.55252 21.8685 5.76349 22.0795C5.97447 22.2905 6.093 22.5766 6.093 22.875C6.093 23.1734 5.97447 23.4595 5.76349 23.6705C5.55252 23.8815 5.26637 24 4.968 24H2.625C1.92881 24 1.26113 23.7234 0.768845 23.2312C0.276562 22.7389 0 22.0712 0 21.375L0 19.032C0 18.7336 0.118526 18.4475 0.329505 18.2365C0.540483 18.0255 0.826631 17.907 1.125 17.907C1.42337 17.907 1.70952 18.0255 1.9205 18.2365C2.13147 18.4475 2.25 18.7336 2.25 19.032ZM24 19.032V21.375C24 22.0712 23.7234 22.7389 23.2312 23.2312C22.7389 23.7234 22.0712 24 21.375 24H19.032C18.7336 24 18.4475 23.8815 18.2365 23.6705C18.0255 23.4595 17.907 23.1734 17.907 22.875C17.907 22.5766 18.0255 22.2905 18.2365 22.0795C18.4475 21.8685 18.7336 21.75 19.032 21.75H21.375C21.4745 21.75 21.5698 21.7105 21.6402 21.6402C21.7105 21.5698 21.75 21.4745 21.75 21.375V19.032C21.75 18.7336 21.8685 18.4475 22.0795 18.2365C22.2905 18.0255 22.5766 17.907 22.875 17.907C23.1734 17.907 23.4595 18.0255 23.6705 18.2365C23.8815 18.4475 24 18.7336 24 19.032ZM9.657 21.75H14.343C14.6414 21.75 14.9275 21.8685 15.1385 22.0795C15.3495 22.2905 15.468 22.5766 15.468 22.875C15.468 23.1734 15.3495 23.4595 15.1385 23.6705C14.9275 23.8815 14.6414 24 14.343 24H9.657C9.35863 24 9.07248 23.8815 8.86151 23.6705C8.65053 23.4595 8.532 23.1734 8.532 22.875C8.532 22.5766 8.65053 22.2905 8.86151 22.0795C9.07248 21.8685 9.35863 21.75 9.657 21.75ZM9.75 4.5V6C9.75 6.29837 9.63147 6.58452 9.4205 6.7955C9.20952 7.00647 8.92337 7.125 8.625 7.125C8.32663 7.125 8.04048 7.00647 7.8295 6.7955C7.61853 6.58452 7.5 6.29837 7.5 6V4.5C7.5 4.20163 7.61853 3.91548 7.8295 3.7045C8.04048 3.49353 8.32663 3.375 8.625 3.375C8.92337 3.375 9.20952 3.49353 9.4205 3.7045C9.63147 3.91548 9.75 4.20163 9.75 4.5ZM3.375 8.625C3.375 8.32663 3.49353 8.04048 3.7045 7.8295C3.91548 7.61853 4.20163 7.5 4.5 7.5H6C6.29837 7.5 6.58452 7.61853 6.7955 7.8295C7.00647 8.04048 7.125 8.32663 7.125 8.625C7.125 8.92337 7.00647 9.20952 6.7955 9.4205C6.58452 9.63147 6.29837 9.75 6 9.75H4.5C4.20163 9.75 3.91548 9.63147 3.7045 9.4205C3.49353 9.20952 3.375 8.92337 3.375 8.625ZM10.125 8.625C10.125 8.32663 10.2435 8.04048 10.4545 7.8295C10.6655 7.61853 10.9516 7.5 11.25 7.5H12.75C13.0484 7.5 13.3345 7.61853 13.5455 7.8295C13.7565 8.04048 13.875 8.32663 13.875 8.625C13.875 8.92337 13.7565 9.20952 13.5455 9.4205C13.3345 9.63147 13.0484 9.75 12.75 9.75H11.25C10.9516 9.75 10.6655 9.63147 10.4545 9.4205C10.2435 9.20952 10.125 8.92337 10.125 8.625ZM8.625 10.125C8.92337 10.125 9.20952 10.2435 9.4205 10.4545C9.63147 10.6655 9.75 10.9516 9.75 11.25V12.75C9.75 13.0484 9.63147 13.3345 9.4205 13.5455C9.20952 13.7565 8.92337 13.875 8.625 13.875C8.32663 13.875 8.04048 13.7565 7.8295 13.5455C7.61853 13.3345 7.5 13.0484 7.5 12.75V11.25C7.5 10.9516 7.61853 10.6655 7.8295 10.4545C8.04048 10.2435 8.32663 10.125 8.625 10.125ZM9.75 16.125V19.875C9.75 20.1734 9.63147 20.4595 9.4205 20.6705C9.20952 20.8815 8.92337 21 8.625 21C8.32663 21 8.04048 20.8815 7.8295 20.6705C7.61853 20.4595 7.5 20.1734 7.5 19.875V16.125C7.5 15.8266 7.61853 15.5405 7.8295 15.3295C8.04048 15.1185 8.32663 15 8.625 15C8.92337 15 9.20952 15.1185 9.4205 15.3295C9.63147 15.5405 9.75 15.8266 9.75 16.125ZM15 8.625C15 8.32663 15.1185 8.04048 15.3295 7.8295C15.5405 7.61853 15.8266 7.5 16.125 7.5H19.875C20.1734 7.5 20.4595 7.61853 20.6705 7.8295C20.8815 8.04048 21 8.32663 21 8.625C21 8.92337 20.8815 9.20952 20.6705 9.4205C20.4595 9.63147 20.1734 9.75 19.875 9.75H16.125C15.8266 9.75 15.5405 9.63147 15.3295 9.4205C15.1185 9.20952 15 8.92337 15 8.625Z"
        fill="#E54B4B" />
</svg>