<svg xmlns="http://www.w3.org/2000/svg" width="32" height="32" viewBox="0 0 32 32" fill="none">
    <g clip-path="url(#clip0_49434_30)">
      <path d="M10 7.75C10 7.55109 10.079 7.36032 10.2197 7.21967C10.3603 7.07902 10.5511 7 10.75 7H12.25C12.4489 7 12.6397 7.07902 12.7803 7.21967C12.921 7.36032 13 7.55109 13 7.75V9.25C13 9.44891 12.921 9.63968 12.7803 9.78033C12.6397 9.92098 12.4489 10 12.25 10H10.75C10.5511 10 10.3603 9.92098 10.2197 9.78033C10.079 9.63968 10 9.44891 10 9.25V7.75ZM14.5 7.75C14.5 7.55109 14.579 7.36032 14.7197 7.21967C14.8603 7.07902 15.0511 7 15.25 7H16.75C16.9489 7 17.1397 7.07902 17.2803 7.21967C17.421 7.36032 17.5 7.55109 17.5 7.75V9.25C17.5 9.44891 17.421 9.63968 17.2803 9.78033C17.1397 9.92098 16.9489 10 16.75 10H15.25C15.0511 10 14.8603 9.92098 14.7197 9.78033C14.579 9.63968 14.5 9.44891 14.5 9.25V7.75ZM19.75 7C19.5511 7 19.3603 7.07902 19.2197 7.21967C19.079 7.36032 19 7.55109 19 7.75V9.25C19 9.44891 19.079 9.63968 19.2197 9.78033C19.3603 9.92098 19.5511 10 19.75 10H21.25C21.4489 10 21.6397 9.92098 21.7803 9.78033C21.921 9.63968 22 9.44891 22 9.25V7.75C22 7.55109 21.921 7.36032 21.7803 7.21967C21.6397 7.07902 21.4489 7 21.25 7H19.75ZM10 12.25C10 12.0511 10.079 11.8603 10.2197 11.7197C10.3603 11.579 10.5511 11.5 10.75 11.5H12.25C12.4489 11.5 12.6397 11.579 12.7803 11.7197C12.921 11.8603 13 12.0511 13 12.25V13.75C13 13.9489 12.921 14.1397 12.7803 14.2803C12.6397 14.421 12.4489 14.5 12.25 14.5H10.75C10.5511 14.5 10.3603 14.421 10.2197 14.2803C10.079 14.1397 10 13.9489 10 13.75V12.25ZM15.25 11.5C15.0511 11.5 14.8603 11.579 14.7197 11.7197C14.579 11.8603 14.5 12.0511 14.5 12.25V13.75C14.5 13.9489 14.579 14.1397 14.7197 14.2803C14.8603 14.421 15.0511 14.5 15.25 14.5H16.75C16.9489 14.5 17.1397 14.421 17.2803 14.2803C17.421 14.1397 17.5 13.9489 17.5 13.75V12.25C17.5 12.0511 17.421 11.8603 17.2803 11.7197C17.1397 11.579 16.9489 11.5 16.75 11.5H15.25ZM19 12.25C19 12.0511 19.079 11.8603 19.2197 11.7197C19.3603 11.579 19.5511 11.5 19.75 11.5H21.25C21.4489 11.5 21.6397 11.579 21.7803 11.7197C21.921 11.8603 22 12.0511 22 12.25V13.75C22 13.9489 21.921 14.1397 21.7803 14.2803C21.6397 14.421 21.4489 14.5 21.25 14.5H19.75C19.5511 14.5 19.3603 14.421 19.2197 14.2803C19.079 14.1397 19 13.9489 19 13.75V12.25ZM10.75 16C10.5511 16 10.3603 16.079 10.2197 16.2197C10.079 16.3603 10 16.5511 10 16.75V18.25C10 18.4489 10.079 18.6397 10.2197 18.7803C10.3603 18.921 10.5511 19 10.75 19H12.25C12.4489 19 12.6397 18.921 12.7803 18.7803C12.921 18.6397 13 18.4489 13 18.25V16.75C13 16.5511 12.921 16.3603 12.7803 16.2197C12.6397 16.079 12.4489 16 12.25 16H10.75ZM14.5 16.75C14.5 16.5511 14.579 16.3603 14.7197 16.2197C14.8603 16.079 15.0511 16 15.25 16H16.75C16.9489 16 17.1397 16.079 17.2803 16.2197C17.421 16.3603 17.5 16.5511 17.5 16.75V18.25C17.5 18.4489 17.421 18.6397 17.2803 18.7803C17.1397 18.921 16.9489 19 16.75 19H15.25C15.0511 19 14.8603 18.921 14.7197 18.7803C14.579 18.6397 14.5 18.4489 14.5 18.25V16.75ZM19.75 16C19.5511 16 19.3603 16.079 19.2197 16.2197C19.079 16.3603 19 16.5511 19 16.75V18.25C19 18.4489 19.079 18.6397 19.2197 18.7803C19.3603 18.921 19.5511 19 19.75 19H21.25C21.4489 19 21.6397 18.921 21.7803 18.7803C21.921 18.6397 22 18.4489 22 18.25V16.75C22 16.5511 21.921 16.3603 21.7803 16.2197C21.6397 16.079 21.4489 16 21.25 16H19.75Z" fill="#ADADAD"/>
      <path d="M7 5.5C7 5.10218 7.15804 4.72064 7.43934 4.43934C7.72064 4.15804 8.10218 4 8.5 4H23.5C23.8978 4 24.2794 4.15804 24.5607 4.43934C24.842 4.72064 25 5.10218 25 5.5V26.5C25 26.8978 24.842 27.2794 24.5607 27.5607C24.2794 27.842 23.8978 28 23.5 28H8.5C8.10218 28 7.72064 27.842 7.43934 27.5607C7.15804 27.2794 7 26.8978 7 26.5V5.5ZM23.5 5.5H8.5V26.5H13V22.75C13 22.5511 13.079 22.3603 13.2197 22.2197C13.3603 22.079 13.5511 22 13.75 22H18.25C18.4489 22 18.6397 22.079 18.7803 22.2197C18.921 22.3603 19 22.5511 19 22.75V26.5H23.5V5.5Z" fill="#ADADAD"/>
    </g>
    <defs>
      <clipPath id="clip0_49434_30">
        <rect width="32" height="32" fill="white"/>
      </clipPath>
    </defs>
  </svg>