<svg xmlns="http://www.w3.org/2000/svg" width="40" height="40" viewBox="0 0 40 40" fill="none">
    <path d="M20.9067 22.4161C20.5482 22.0576 19.9307 22.0576 19.5722 22.4161L14.46 27.5283C13.5173 28.4711 12.2625 28.9889 10.9346 28.9889H9.93213L16.3788 35.4355C18.3904 37.3941 21.6569 37.3941 23.6686 35.4355L30.1418 28.969H29.5243C28.1965 28.969 26.9417 28.4511 25.9989 27.5084L20.9067 22.4161ZM19.5722 17.5297C19.9971 17.8949 20.5415 17.9015 20.9067 17.5297L25.9989 12.4375C26.9417 11.4349 28.1965 10.9768 29.5243 10.9768H30.1418L23.6752 4.50762C21.6569 2.4929 18.3904 2.4929 16.3788 4.50762L9.92549 10.9569H10.9346C12.2625 10.9569 13.5173 11.4748 14.46 12.4175L19.5722 17.5297ZM29.5243 12.4706C28.6081 12.4706 27.7649 12.8424 27.0612 13.4931L21.9689 18.5853C21.4909 19.0036 20.8668 19.3024 20.2361 19.3024C19.612 19.3024 18.988 19.0036 18.5099 18.5853L13.3978 13.4732C12.7471 12.8292 11.8508 12.4574 10.9346 12.4574H8.43167L4.56104 16.328C2.54937 18.3397 2.54937 21.6061 4.56104 23.6178L8.43167 27.4885H10.9346C11.8508 27.4885 12.7471 27.1167 13.3978 26.466L18.5099 21.3539C19.4328 20.431 21.0461 20.431 21.9689 21.3605L27.0612 26.4461C27.7649 27.0967 28.6081 27.4685 29.5243 27.4685H31.6369L35.489 23.6178C37.5037 21.6061 37.5037 18.3397 35.489 16.328L31.6369 12.4706H29.5243Z" fill="#445084"/>
  </svg>