<svg xmlns="http://www.w3.org/2000/svg" width="32" height="32" viewBox="0 0 32 32" fill="none">
    <g clip-path="url(#clip0_49434_39)">
      <path d="M21.026 9.457L17.847 5L6.158 14.338L5.51 14.331V14.341H5V26.341H26V14.341H25.038L23.124 8.742L21.026 9.457ZM22.925 14.341H12.897L20.366 11.795L21.888 11.308L22.925 14.341ZM19.05 10.131L11.34 12.759L17.446 7.881L19.05 10.131ZM7 22.51V18.17C7.4219 18.0205 7.80511 17.7787 8.1217 17.4623C8.43828 17.1459 8.68027 16.7628 8.83 16.341H22.17C22.3197 16.763 22.5616 17.1462 22.8782 17.4628C23.1948 17.7794 23.578 18.0213 24 18.171V22.511C23.578 22.6607 23.1948 22.9026 22.8782 23.2192C22.5616 23.5358 22.3197 23.919 22.17 24.341H8.832C8.68218 23.9187 8.43996 23.5351 8.12302 23.2184C7.80607 22.9016 7.4224 22.6596 7 22.51Z" fill="#ADADAD"/>
    </g>
    <defs>
      <clipPath id="clip0_49434_39">
        <rect width="32" height="32" fill="white"/>
      </clipPath>
    </defs>
  </svg>